<mxfile host="app.diagrams.net" modified="2022-08-16T13:27:16.083Z" agent="5.0 (Macintosh; Intel Mac OS X 10_15_7) AppleWebKit/537.36 (KHTML, like Gecko) Chrome/104.0.0.0 Safari/537.36" etag="4zde_K0lByAJIhhmM1JH" version="20.2.4" type="github">
  <diagram id="UUr9oCmgKK7NFTHfe8kC" name="Page-1">
    <mxGraphModel dx="1395" dy="964" grid="1" gridSize="10" guides="1" tooltips="1" connect="1" arrows="1" fold="1" page="1" pageScale="1" pageWidth="827" pageHeight="1169" math="0" shadow="0">
      <root>
        <mxCell id="0" />
        <mxCell id="1" parent="0" />
        <mxCell id="FNvh9srxU-pzTjBqOGl6-11" style="edgeStyle=orthogonalEdgeStyle;rounded=0;orthogonalLoop=1;jettySize=auto;html=1;" edge="1" parent="1" source="FNvh9srxU-pzTjBqOGl6-1" target="FNvh9srxU-pzTjBqOGl6-2">
          <mxGeometry relative="1" as="geometry" />
        </mxCell>
        <mxCell id="FNvh9srxU-pzTjBqOGl6-1" value="CSV data (xyz.csv)" style="rounded=0;whiteSpace=wrap;html=1;" vertex="1" parent="1">
          <mxGeometry x="354" y="40" width="120" height="50" as="geometry" />
        </mxCell>
        <mxCell id="FNvh9srxU-pzTjBqOGl6-12" style="edgeStyle=orthogonalEdgeStyle;rounded=0;orthogonalLoop=1;jettySize=auto;html=1;entryX=0.5;entryY=0;entryDx=0;entryDy=0;" edge="1" parent="1" source="FNvh9srxU-pzTjBqOGl6-2" target="FNvh9srxU-pzTjBqOGl6-3">
          <mxGeometry relative="1" as="geometry" />
        </mxCell>
        <mxCell id="FNvh9srxU-pzTjBqOGl6-2" value="Import data &lt;br&gt;to app &lt;br&gt;(create batch)" style="shape=parallelogram;perimeter=parallelogramPerimeter;whiteSpace=wrap;html=1;fixedSize=1;" vertex="1" parent="1">
          <mxGeometry x="354" y="140" width="120" height="60" as="geometry" />
        </mxCell>
        <mxCell id="FNvh9srxU-pzTjBqOGl6-13" style="edgeStyle=orthogonalEdgeStyle;rounded=0;orthogonalLoop=1;jettySize=auto;html=1;entryX=0.5;entryY=0;entryDx=0;entryDy=0;" edge="1" parent="1" source="FNvh9srxU-pzTjBqOGl6-3" target="FNvh9srxU-pzTjBqOGl6-4">
          <mxGeometry relative="1" as="geometry" />
        </mxCell>
        <mxCell id="FNvh9srxU-pzTjBqOGl6-3" value="check the &lt;br&gt;imported data" style="shape=parallelogram;perimeter=parallelogramPerimeter;whiteSpace=wrap;html=1;fixedSize=1;" vertex="1" parent="1">
          <mxGeometry x="354" y="250" width="120" height="60" as="geometry" />
        </mxCell>
        <mxCell id="FNvh9srxU-pzTjBqOGl6-6" style="edgeStyle=orthogonalEdgeStyle;rounded=0;orthogonalLoop=1;jettySize=auto;html=1;" edge="1" parent="1" source="FNvh9srxU-pzTjBqOGl6-4" target="FNvh9srxU-pzTjBqOGl6-5">
          <mxGeometry relative="1" as="geometry" />
        </mxCell>
        <mxCell id="FNvh9srxU-pzTjBqOGl6-15" style="edgeStyle=orthogonalEdgeStyle;rounded=0;orthogonalLoop=1;jettySize=auto;html=1;entryX=0.5;entryY=0;entryDx=0;entryDy=0;" edge="1" parent="1" source="FNvh9srxU-pzTjBqOGl6-4" target="FNvh9srxU-pzTjBqOGl6-17">
          <mxGeometry relative="1" as="geometry">
            <mxPoint x="414" y="490" as="targetPoint" />
          </mxGeometry>
        </mxCell>
        <mxCell id="FNvh9srxU-pzTjBqOGl6-4" value="Are the data correct?" style="rhombus;whiteSpace=wrap;html=1;" vertex="1" parent="1">
          <mxGeometry x="332" y="350" width="164" height="90" as="geometry" />
        </mxCell>
        <mxCell id="FNvh9srxU-pzTjBqOGl6-9" style="edgeStyle=orthogonalEdgeStyle;rounded=0;orthogonalLoop=1;jettySize=auto;html=1;entryX=0.5;entryY=1;entryDx=0;entryDy=0;" edge="1" parent="1" source="FNvh9srxU-pzTjBqOGl6-5" target="FNvh9srxU-pzTjBqOGl6-8">
          <mxGeometry relative="1" as="geometry" />
        </mxCell>
        <mxCell id="FNvh9srxU-pzTjBqOGl6-5" value="Fix the data &lt;br&gt;in .csv file" style="shape=parallelogram;perimeter=parallelogramPerimeter;whiteSpace=wrap;html=1;fixedSize=1;" vertex="1" parent="1">
          <mxGeometry x="150" y="280" width="120" height="60" as="geometry" />
        </mxCell>
        <mxCell id="FNvh9srxU-pzTjBqOGl6-10" style="edgeStyle=orthogonalEdgeStyle;rounded=0;orthogonalLoop=1;jettySize=auto;html=1;entryX=0;entryY=0.5;entryDx=0;entryDy=0;" edge="1" parent="1" source="FNvh9srxU-pzTjBqOGl6-8" target="FNvh9srxU-pzTjBqOGl6-1">
          <mxGeometry relative="1" as="geometry">
            <Array as="points">
              <mxPoint x="210" y="70" />
            </Array>
          </mxGeometry>
        </mxCell>
        <mxCell id="FNvh9srxU-pzTjBqOGl6-8" value="Delete old&lt;br&gt;batch" style="shape=parallelogram;perimeter=parallelogramPerimeter;whiteSpace=wrap;html=1;fixedSize=1;" vertex="1" parent="1">
          <mxGeometry x="150" y="140" width="120" height="60" as="geometry" />
        </mxCell>
        <mxCell id="FNvh9srxU-pzTjBqOGl6-19" style="edgeStyle=orthogonalEdgeStyle;rounded=0;orthogonalLoop=1;jettySize=auto;html=1;entryX=0.5;entryY=0;entryDx=0;entryDy=0;" edge="1" parent="1" source="FNvh9srxU-pzTjBqOGl6-17" target="FNvh9srxU-pzTjBqOGl6-18">
          <mxGeometry relative="1" as="geometry" />
        </mxCell>
        <mxCell id="FNvh9srxU-pzTjBqOGl6-22" style="edgeStyle=orthogonalEdgeStyle;rounded=0;orthogonalLoop=1;jettySize=auto;html=1;entryX=0;entryY=0.25;entryDx=0;entryDy=0;" edge="1" parent="1" source="FNvh9srxU-pzTjBqOGl6-17" target="FNvh9srxU-pzTjBqOGl6-20">
          <mxGeometry relative="1" as="geometry">
            <mxPoint x="260" y="760" as="targetPoint" />
            <Array as="points">
              <mxPoint x="230" y="535" />
              <mxPoint x="230" y="769" />
            </Array>
          </mxGeometry>
        </mxCell>
        <mxCell id="FNvh9srxU-pzTjBqOGl6-17" value="Do I need template&lt;br&gt;change?" style="rhombus;whiteSpace=wrap;html=1;" vertex="1" parent="1">
          <mxGeometry x="332" y="490" width="164" height="90" as="geometry" />
        </mxCell>
        <mxCell id="FNvh9srxU-pzTjBqOGl6-21" style="edgeStyle=orthogonalEdgeStyle;rounded=0;orthogonalLoop=1;jettySize=auto;html=1;" edge="1" parent="1" source="FNvh9srxU-pzTjBqOGl6-18" target="FNvh9srxU-pzTjBqOGl6-20">
          <mxGeometry relative="1" as="geometry" />
        </mxCell>
        <mxCell id="FNvh9srxU-pzTjBqOGl6-18" value="Update the &lt;br&gt;template" style="shape=parallelogram;perimeter=parallelogramPerimeter;whiteSpace=wrap;html=1;fixedSize=1;" vertex="1" parent="1">
          <mxGeometry x="354" y="620" width="120" height="60" as="geometry" />
        </mxCell>
        <mxCell id="FNvh9srxU-pzTjBqOGl6-24" style="edgeStyle=orthogonalEdgeStyle;rounded=0;orthogonalLoop=1;jettySize=auto;html=1;entryX=0.5;entryY=0;entryDx=0;entryDy=0;" edge="1" parent="1" source="FNvh9srxU-pzTjBqOGl6-20" target="FNvh9srxU-pzTjBqOGl6-23">
          <mxGeometry relative="1" as="geometry" />
        </mxCell>
        <mxCell id="FNvh9srxU-pzTjBqOGl6-20" value="Send batch" style="shape=parallelogram;perimeter=parallelogramPerimeter;whiteSpace=wrap;html=1;fixedSize=1;" vertex="1" parent="1">
          <mxGeometry x="354" y="750" width="120" height="60" as="geometry" />
        </mxCell>
        <mxCell id="FNvh9srxU-pzTjBqOGl6-23" value="Check batch&lt;br&gt;result" style="shape=parallelogram;perimeter=parallelogramPerimeter;whiteSpace=wrap;html=1;fixedSize=1;" vertex="1" parent="1">
          <mxGeometry x="354" y="870" width="120" height="60" as="geometry" />
        </mxCell>
        <mxCell id="FNvh9srxU-pzTjBqOGl6-25" value="Yes" style="text;html=1;resizable=0;autosize=1;align=center;verticalAlign=middle;points=[];fillColor=none;strokeColor=none;rounded=0;" vertex="1" parent="1">
          <mxGeometry x="374" y="580" width="40" height="30" as="geometry" />
        </mxCell>
        <mxCell id="FNvh9srxU-pzTjBqOGl6-26" value="No" style="text;html=1;resizable=0;autosize=1;align=center;verticalAlign=middle;points=[];fillColor=none;strokeColor=none;rounded=0;" vertex="1" parent="1">
          <mxGeometry x="292" y="370" width="40" height="30" as="geometry" />
        </mxCell>
        <mxCell id="FNvh9srxU-pzTjBqOGl6-27" value="Yes" style="text;html=1;resizable=0;autosize=1;align=center;verticalAlign=middle;points=[];fillColor=none;strokeColor=none;rounded=0;" vertex="1" parent="1">
          <mxGeometry x="374" y="440" width="40" height="30" as="geometry" />
        </mxCell>
        <mxCell id="FNvh9srxU-pzTjBqOGl6-28" value="No" style="text;html=1;resizable=0;autosize=1;align=center;verticalAlign=middle;points=[];fillColor=none;strokeColor=none;rounded=0;" vertex="1" parent="1">
          <mxGeometry x="292" y="510" width="40" height="30" as="geometry" />
        </mxCell>
        <mxCell id="FNvh9srxU-pzTjBqOGl6-34" style="edgeStyle=orthogonalEdgeStyle;rounded=0;orthogonalLoop=1;jettySize=auto;html=1;entryX=0.5;entryY=0;entryDx=0;entryDy=0;" edge="1" parent="1" source="FNvh9srxU-pzTjBqOGl6-29" target="FNvh9srxU-pzTjBqOGl6-33">
          <mxGeometry relative="1" as="geometry" />
        </mxCell>
        <mxCell id="FNvh9srxU-pzTjBqOGl6-29" value="AWS sender&lt;br&gt;indentity" style="ellipse;shape=cloud;whiteSpace=wrap;html=1;" vertex="1" parent="1">
          <mxGeometry x="600" y="555" width="140" height="80" as="geometry" />
        </mxCell>
        <mxCell id="FNvh9srxU-pzTjBqOGl6-32" value="" style="edgeStyle=none;orthogonalLoop=1;jettySize=auto;html=1;rounded=0;entryX=0.07;entryY=0.4;entryDx=0;entryDy=0;entryPerimeter=0;" edge="1" parent="1" target="FNvh9srxU-pzTjBqOGl6-29">
          <mxGeometry width="80" relative="1" as="geometry">
            <mxPoint x="414" y="594.66" as="sourcePoint" />
            <mxPoint x="494" y="594.66" as="targetPoint" />
            <Array as="points" />
          </mxGeometry>
        </mxCell>
        <mxCell id="FNvh9srxU-pzTjBqOGl6-35" style="edgeStyle=orthogonalEdgeStyle;rounded=0;orthogonalLoop=1;jettySize=auto;html=1;" edge="1" parent="1" source="FNvh9srxU-pzTjBqOGl6-33">
          <mxGeometry relative="1" as="geometry">
            <mxPoint x="410" y="710" as="targetPoint" />
          </mxGeometry>
        </mxCell>
        <mxCell id="FNvh9srxU-pzTjBqOGl6-33" value="Select identity" style="shape=parallelogram;perimeter=parallelogramPerimeter;whiteSpace=wrap;html=1;fixedSize=1;" vertex="1" parent="1">
          <mxGeometry x="610" y="650" width="120" height="60" as="geometry" />
        </mxCell>
      </root>
    </mxGraphModel>
  </diagram>
</mxfile>
